<svg id="visual" viewBox="0 0 1500 300" width="1500" height="300" xmlns="http://www.w3.org/2000/svg" xmlns:xlink="http://www.w3.org/1999/xlink" version="1.1"><path d="M0 243L20.8 231.8C41.7 220.7 83.3 198.3 125 194.2C166.7 190 208.3 204 250 210.5C291.7 217 333.3 216 375 222C416.7 228 458.3 241 500 242.3C541.7 243.7 583.3 233.3 625 223.8C666.7 214.3 708.3 205.7 750 204.5C791.7 203.3 833.3 209.7 875 215.7C916.7 221.7 958.3 227.3 1000 229.2C1041.7 231 1083.3 229 1125 222.8C1166.7 216.7 1208.3 206.3 1250 202.8C1291.7 199.3 1333.3 202.7 1375 212.3C1416.7 222 1458.3 238 1479.2 246L1500 254L1500 0L1479.2 0C1458.3 0 1416.7 0 1375 0C1333.3 0 1291.7 0 1250 0C1208.3 0 1166.7 0 1125 0C1083.3 0 1041.7 0 1000 0C958.3 0 916.7 0 875 0C833.3 0 791.7 0 750 0C708.3 0 666.7 0 625 0C583.3 0 541.7 0 500 0C458.3 0 416.7 0 375 0C333.3 0 291.7 0 250 0C208.3 0 166.7 0 125 0C83.3 0 41.7 0 20.8 0L0 0Z" fill="#04d5d5"></path><path d="M0 178L20.8 174.3C41.7 170.7 83.3 163.3 125 163.7C166.7 164 208.3 172 250 169.2C291.7 166.3 333.3 152.7 375 150.5C416.7 148.3 458.3 157.7 500 162C541.7 166.3 583.3 165.7 625 170.5C666.7 175.3 708.3 185.7 750 179.2C791.7 172.7 833.3 149.3 875 144.8C916.7 140.3 958.3 154.7 1000 154.8C1041.7 155 1083.3 141 1125 145.7C1166.7 150.3 1208.3 173.7 1250 174.7C1291.7 175.7 1333.3 154.3 1375 143.7C1416.7 133 1458.3 133 1479.2 133L1500 133L1500 0L1479.2 0C1458.3 0 1416.7 0 1375 0C1333.3 0 1291.7 0 1250 0C1208.3 0 1166.7 0 1125 0C1083.3 0 1041.7 0 1000 0C958.3 0 916.7 0 875 0C833.3 0 791.7 0 750 0C708.3 0 666.7 0 625 0C583.3 0 541.7 0 500 0C458.3 0 416.7 0 375 0C333.3 0 291.7 0 250 0C208.3 0 166.7 0 125 0C83.3 0 41.7 0 20.8 0L0 0Z" fill="#00aff8"></path><path d="M0 108L20.8 104.7C41.7 101.3 83.3 94.7 125 90.5C166.7 86.3 208.3 84.7 250 91C291.7 97.3 333.3 111.7 375 117.7C416.7 123.7 458.3 121.3 500 116.3C541.7 111.3 583.3 103.7 625 106.5C666.7 109.3 708.3 122.7 750 125.3C791.7 128 833.3 120 875 119C916.7 118 958.3 124 1000 123.3C1041.7 122.7 1083.3 115.3 1125 112.3C1166.7 109.3 1208.3 110.7 1250 107.5C1291.7 104.3 1333.3 96.7 1375 91.3C1416.7 86 1458.3 83 1479.2 81.5L1500 80L1500 0L1479.2 0C1458.3 0 1416.7 0 1375 0C1333.3 0 1291.7 0 1250 0C1208.3 0 1166.7 0 1125 0C1083.3 0 1041.7 0 1000 0C958.3 0 916.7 0 875 0C833.3 0 791.7 0 750 0C708.3 0 666.7 0 625 0C583.3 0 541.7 0 500 0C458.3 0 416.7 0 375 0C333.3 0 291.7 0 250 0C208.3 0 166.7 0 125 0C83.3 0 41.7 0 20.8 0L0 0Z" fill="#9573d6"></path><path d="M0 53L20.8 54.7C41.7 56.3 83.3 59.7 125 56.2C166.7 52.7 208.3 42.3 250 39.7C291.7 37 333.3 42 375 45.7C416.7 49.3 458.3 51.7 500 54C541.7 56.3 583.3 58.7 625 61.8C666.7 65 708.3 69 750 69.7C791.7 70.3 833.3 67.7 875 66C916.7 64.3 958.3 63.7 1000 64.3C1041.7 65 1083.3 67 1125 62.2C1166.7 57.3 1208.3 45.7 1250 43C1291.7 40.3 1333.3 46.7 1375 51.8C1416.7 57 1458.3 61 1479.2 63L1500 65L1500 0L1479.2 0C1458.3 0 1416.7 0 1375 0C1333.3 0 1291.7 0 1250 0C1208.3 0 1166.7 0 1125 0C1083.3 0 1041.7 0 1000 0C958.3 0 916.7 0 875 0C833.3 0 791.7 0 750 0C708.3 0 666.7 0 625 0C583.3 0 541.7 0 500 0C458.3 0 416.7 0 375 0C333.3 0 291.7 0 250 0C208.3 0 166.7 0 125 0C83.3 0 41.7 0 20.8 0L0 0Z" fill="#c62368"></path></svg>