<svg id="visual" viewBox="0 0 1500 300" width="1500" height="300" xmlns="http://www.w3.org/2000/svg" xmlns:xlink="http://www.w3.org/1999/xlink" version="1.1"><path d="M0 75L20.8 78.7C41.7 82.3 83.3 89.7 125 93.2C166.7 96.7 208.3 96.3 250 89.5C291.7 82.7 333.3 69.3 375 69.8C416.7 70.3 458.3 84.7 500 92.5C541.7 100.3 583.3 101.7 625 92.7C666.7 83.7 708.3 64.3 750 60.5C791.7 56.7 833.3 68.3 875 76.5C916.7 84.7 958.3 89.3 1000 93.8C1041.7 98.3 1083.3 102.7 1125 105C1166.7 107.3 1208.3 107.7 1250 109.7C1291.7 111.7 1333.3 115.3 1375 113C1416.7 110.7 1458.3 102.3 1479.2 98.2L1500 94L1500 301L1479.2 301C1458.3 301 1416.7 301 1375 301C1333.3 301 1291.7 301 1250 301C1208.3 301 1166.7 301 1125 301C1083.3 301 1041.7 301 1000 301C958.3 301 916.7 301 875 301C833.3 301 791.7 301 750 301C708.3 301 666.7 301 625 301C583.3 301 541.7 301 500 301C458.3 301 416.7 301 375 301C333.3 301 291.7 301 250 301C208.3 301 166.7 301 125 301C83.3 301 41.7 301 20.8 301L0 301Z" fill="#f69853"></path><path d="M0 160L20.8 161.8C41.7 163.7 83.3 167.3 125 159.7C166.7 152 208.3 133 250 132.3C291.7 131.7 333.3 149.3 375 147.8C416.7 146.3 458.3 125.7 500 116.8C541.7 108 583.3 111 625 118C666.7 125 708.3 136 750 136.8C791.7 137.7 833.3 128.3 875 132.8C916.7 137.3 958.3 155.7 1000 164.8C1041.7 174 1083.3 174 1125 168.2C1166.7 162.3 1208.3 150.7 1250 140.5C1291.7 130.3 1333.3 121.7 1375 118C1416.7 114.3 1458.3 115.7 1479.2 116.3L1500 117L1500 301L1479.2 301C1458.3 301 1416.7 301 1375 301C1333.3 301 1291.7 301 1250 301C1208.3 301 1166.7 301 1125 301C1083.3 301 1041.7 301 1000 301C958.3 301 916.7 301 875 301C833.3 301 791.7 301 750 301C708.3 301 666.7 301 625 301C583.3 301 541.7 301 500 301C458.3 301 416.7 301 375 301C333.3 301 291.7 301 250 301C208.3 301 166.7 301 125 301C83.3 301 41.7 301 20.8 301L0 301Z" fill="#ef7154"></path><path d="M0 180L20.8 180.3C41.7 180.7 83.3 181.3 125 180.7C166.7 180 208.3 178 250 184C291.7 190 333.3 204 375 211.5C416.7 219 458.3 220 500 212.7C541.7 205.3 583.3 189.7 625 185C666.7 180.3 708.3 186.7 750 187.7C791.7 188.7 833.3 184.3 875 189.2C916.7 194 958.3 208 1000 204.7C1041.7 201.3 1083.3 180.7 1125 173.2C1166.7 165.7 1208.3 171.3 1250 179.3C1291.7 187.3 1333.3 197.7 1375 204C1416.7 210.3 1458.3 212.7 1479.2 213.8L1500 215L1500 301L1479.2 301C1458.3 301 1416.7 301 1375 301C1333.3 301 1291.7 301 1250 301C1208.3 301 1166.7 301 1125 301C1083.3 301 1041.7 301 1000 301C958.3 301 916.7 301 875 301C833.3 301 791.7 301 750 301C708.3 301 666.7 301 625 301C583.3 301 541.7 301 500 301C458.3 301 416.7 301 375 301C333.3 301 291.7 301 250 301C208.3 301 166.7 301 125 301C83.3 301 41.7 301 20.8 301L0 301Z" fill="#df4b5c"></path><path d="M0 215L20.8 214.5C41.7 214 83.3 213 125 212.5C166.7 212 208.3 212 250 219.2C291.7 226.3 333.3 240.7 375 241.5C416.7 242.3 458.3 229.7 500 225.2C541.7 220.7 583.3 224.3 625 227C666.7 229.7 708.3 231.3 750 229.2C791.7 227 833.3 221 875 219.3C916.7 217.7 958.3 220.3 1000 222.2C1041.7 224 1083.3 225 1125 227.2C1166.7 229.3 1208.3 232.7 1250 238.3C1291.7 244 1333.3 252 1375 247.7C1416.7 243.3 1458.3 226.7 1479.2 218.3L1500 210L1500 301L1479.2 301C1458.3 301 1416.7 301 1375 301C1333.3 301 1291.7 301 1250 301C1208.3 301 1166.7 301 1125 301C1083.3 301 1041.7 301 1000 301C958.3 301 916.7 301 875 301C833.3 301 791.7 301 750 301C708.3 301 666.7 301 625 301C583.3 301 541.7 301 500 301C458.3 301 416.7 301 375 301C333.3 301 291.7 301 250 301C208.3 301 166.7 301 125 301C83.3 301 41.7 301 20.8 301L0 301Z" fill="#c62368"></path></svg>