<svg id="visual" viewBox="0 0 1500 300" width="1500" height="300" xmlns="http://www.w3.org/2000/svg" xmlns:xlink="http://www.w3.org/1999/xlink" version="1.1"><path d="M0 60L20.8 64.5C41.7 69 83.3 78 125 81.3C166.7 84.7 208.3 82.3 250 86.8C291.7 91.3 333.3 102.7 375 108.8C416.7 115 458.3 116 500 114C541.7 112 583.3 107 625 104C666.7 101 708.3 100 750 100.7C791.7 101.3 833.3 103.7 875 107.2C916.7 110.7 958.3 115.3 1000 118.2C1041.7 121 1083.3 122 1125 113.7C1166.7 105.3 1208.3 87.7 1250 81.5C1291.7 75.3 1333.3 80.7 1375 77.2C1416.7 73.7 1458.3 61.3 1479.2 55.2L1500 49L1500 301L1479.2 301C1458.3 301 1416.7 301 1375 301C1333.3 301 1291.7 301 1250 301C1208.3 301 1166.7 301 1125 301C1083.3 301 1041.7 301 1000 301C958.3 301 916.7 301 875 301C833.3 301 791.7 301 750 301C708.3 301 666.7 301 625 301C583.3 301 541.7 301 500 301C458.3 301 416.7 301 375 301C333.3 301 291.7 301 250 301C208.3 301 166.7 301 125 301C83.3 301 41.7 301 20.8 301L0 301Z" fill="#04d5d5"></path><path d="M0 126L20.8 134.2C41.7 142.3 83.3 158.7 125 164.5C166.7 170.3 208.3 165.7 250 156.8C291.7 148 333.3 135 375 132.2C416.7 129.3 458.3 136.7 500 136.5C541.7 136.3 583.3 128.7 625 122.5C666.7 116.3 708.3 111.7 750 112.7C791.7 113.7 833.3 120.3 875 127.2C916.7 134 958.3 141 1000 142.7C1041.7 144.3 1083.3 140.7 1125 144.8C1166.7 149 1208.3 161 1250 162.5C1291.7 164 1333.3 155 1375 154.7C1416.7 154.3 1458.3 162.7 1479.2 166.8L1500 171L1500 301L1479.2 301C1458.3 301 1416.7 301 1375 301C1333.3 301 1291.7 301 1250 301C1208.3 301 1166.7 301 1125 301C1083.3 301 1041.7 301 1000 301C958.3 301 916.7 301 875 301C833.3 301 791.7 301 750 301C708.3 301 666.7 301 625 301C583.3 301 541.7 301 500 301C458.3 301 416.7 301 375 301C333.3 301 291.7 301 250 301C208.3 301 166.7 301 125 301C83.3 301 41.7 301 20.8 301L0 301Z" fill="#00c19f"></path><path d="M0 206L20.8 202.5C41.7 199 83.3 192 125 187C166.7 182 208.3 179 250 180.5C291.7 182 333.3 188 375 194.5C416.7 201 458.3 208 500 212.7C541.7 217.3 583.3 219.7 625 217.3C666.7 215 708.3 208 750 205.5C791.7 203 833.3 205 875 203.3C916.7 201.7 958.3 196.3 1000 189.3C1041.7 182.3 1083.3 173.7 1125 174.2C1166.7 174.7 1208.3 184.3 1250 193.7C1291.7 203 1333.3 212 1375 214C1416.7 216 1458.3 211 1479.2 208.5L1500 206L1500 301L1479.2 301C1458.3 301 1416.7 301 1375 301C1333.3 301 1291.7 301 1250 301C1208.3 301 1166.7 301 1125 301C1083.3 301 1041.7 301 1000 301C958.3 301 916.7 301 875 301C833.3 301 791.7 301 750 301C708.3 301 666.7 301 625 301C583.3 301 541.7 301 500 301C458.3 301 416.7 301 375 301C333.3 301 291.7 301 250 301C208.3 301 166.7 301 125 301C83.3 301 41.7 301 20.8 301L0 301Z" fill="#09aa61"></path><path d="M0 260L20.8 252.8C41.7 245.7 83.3 231.3 125 224C166.7 216.7 208.3 216.3 250 221.5C291.7 226.7 333.3 237.3 375 237C416.7 236.7 458.3 225.3 500 223.7C541.7 222 583.3 230 625 236.8C666.7 243.7 708.3 249.3 750 251.3C791.7 253.3 833.3 251.7 875 253.5C916.7 255.3 958.3 260.7 1000 256.2C1041.7 251.7 1083.3 237.3 1125 236.5C1166.7 235.7 1208.3 248.3 1250 250.3C1291.7 252.3 1333.3 243.7 1375 239C1416.7 234.3 1458.3 233.7 1479.2 233.3L1500 233L1500 301L1479.2 301C1458.3 301 1416.7 301 1375 301C1333.3 301 1291.7 301 1250 301C1208.3 301 1166.7 301 1125 301C1083.3 301 1041.7 301 1000 301C958.3 301 916.7 301 875 301C833.3 301 791.7 301 750 301C708.3 301 666.7 301 625 301C583.3 301 541.7 301 500 301C458.3 301 416.7 301 375 301C333.3 301 291.7 301 250 301C208.3 301 166.7 301 125 301C83.3 301 41.7 301 20.8 301L0 301Z" fill="#30910b"></path></svg>