<svg id="em9qkVsTF3a1" xmlns="http://www.w3.org/2000/svg" xmlns:xlink="http://www.w3.org/1999/xlink" viewBox="0 0 300 300" shape-rendering="geometricPrecision" text-rendering="geometricPrecision" project-id="ad274c81f83b40548e11d0d6a88d7db4" export-id="47500294c72448528f54af5b2d9135cb" cached="false"><g transform="matrix(2.15 0 0 2.15-116.208457-112.678957)"><g transform="matrix(.707107 0.707107-.707107 0.707107 122.449202-51.681792)"><rect width="30" height="30" rx="2" ry="2" transform="matrix(0 1-1 0 106.610041 74.968364)" fill="#e80d25" stroke="#000" stroke-width="0.5"/><rect width="30" height="30" rx="2" ry="2" transform="matrix(0 1-1 0 138.610041 74.968364)" fill="#0e5bf6" stroke="#000" stroke-width="0.5"/><rect width="30" height="30" rx="2" ry="2" transform="matrix(0 1-1 0 170.610041 138.968364)" fill="#20b112" stroke="#000" stroke-width="0.5"/><rect width="30" height="30" rx="2" ry="2" transform="matrix(0 1-1 0 138.610041 138.968364)" fill="#f3a60a" stroke="#000" stroke-width="0.5"/><rect width="30" height="30" rx="2" ry="2" transform="matrix(0 1-1 0 106.610041 138.968364)" fill="#0e5bf6" stroke="#000" stroke-width="0.5"/><rect width="30" height="30" rx="2" ry="2" transform="matrix(0 1-1 0 106.610041 106.968364)" fill="#caca05" stroke="#000" stroke-width="0.5"/><rect width="30" height="30" rx="2" ry="2" transform="matrix(0 1-1 0 138.610041 106.968364)" fill="#fff" stroke="#000" stroke-width="0.5"/><rect width="30" height="30" rx="2" ry="2" transform="matrix(0 1-1 0 170.610041 106.968364)" fill="#20b112" stroke="#000" stroke-width="0.5"/><rect width="30" height="30" rx="2" ry="2" transform="matrix(0 1-1 0 170.610041 74.968364)" fill="#caca05" stroke="#000" stroke-width="0.5"/></g></g></svg>
